<svg xmlns="http://www.w3.org/2000/svg" width="26" height="26" viewBox="0 0 26 26"><defs><style>.a,.b{fill:#fff;}.a{opacity:0;}</style></defs><g transform="translate(0 -0.008)"><rect class="a" width="26" height="26" transform="translate(0 0.008)"/><path class="b" d="M20.655,4H5.292A3.292,3.292,0,0,0,2,7.292V18.266a3.292,3.292,0,0,0,3.292,3.292H20.655a3.292,3.292,0,0,0,3.292-3.292V7.292A3.292,3.292,0,0,0,20.655,4ZM19.92,6.195l-6.946,5.212L6.027,6.195Zm.735,13.168H5.292a1.1,1.1,0,0,1-1.1-1.1V7.566l8.121,6.09a1.1,1.1,0,0,0,1.317,0l8.121-6.09v10.7A1.1,1.1,0,0,1,20.655,19.363Z" transform="translate(0.195 0.389)"/></g></svg>