<svg xmlns="http://www.w3.org/2000/svg" width="26" height="26" viewBox="0 0 26 26"><defs><style>.a,.b{fill:#fff;}.a{opacity:0;}</style></defs><g transform="translate(0 0.108)"><rect class="a" width="26" height="26" transform="translate(0 -0.108)"/><path class="b" d="M18.9,23.947A16.921,16.921,0,0,1,2,7.048,5.048,5.048,0,0,1,7.048,2a4.324,4.324,0,0,1,.845.077,4.159,4.159,0,0,1,.79.2A1.1,1.1,0,0,1,9.4,3.1l1.5,6.584a1.1,1.1,0,0,1-.285,1.01c-.143.154-.154.165-1.5.867a10.875,10.875,0,0,0,5.344,5.366c.713-1.361.724-1.372.878-1.514a1.1,1.1,0,0,1,1.01-.285l6.584,1.5a1.1,1.1,0,0,1,.79.713,4.763,4.763,0,0,1,.209.8,5.234,5.234,0,0,1,.066.834A5.048,5.048,0,0,1,18.9,23.947ZM7.048,4.195A2.864,2.864,0,0,0,4.195,7.048a14.716,14.716,0,0,0,14.7,14.7A2.864,2.864,0,0,0,21.753,18.9v-.362l-5.092-1.174-.318.6c-.494.955-.856,1.646-1.778,1.273a13,13,0,0,1-7.879-7.912c-.4-.856.351-1.251,1.295-1.745l.6-.3L7.41,4.195Z" transform="translate(0.195 0.195)"/></g></svg>