<svg xmlns="http://www.w3.org/2000/svg" width="22.57" height="19.498" viewBox="0 0 22.57 19.498"><defs><style>.a{fill:#fff;}</style></defs><g transform="translate(0 -34.57)"><g transform="translate(0 34.57)"><path class="a" d="M276.806,39.95s0,0,0-.007a5.387,5.387,0,1,0-3.633,5.079c-1.209,6.934-6.616,11.406-1.6,7.726C277.128,48.666,276.812,40.107,276.806,39.95Z" transform="translate(-254.241 -34.57)"/><path class="a" d="M5.373,45.315a5.353,5.353,0,0,0,1.74-.294C5.9,51.956.5,56.428,5.509,52.747c5.558-4.081,5.242-12.641,5.236-12.8,0,0,0,0,0-.007a5.373,5.373,0,1,0-5.373,5.373Z" transform="translate(0 -34.57)"/></g></g></svg>